# xmcd
#
# Track frame offsets:
#	150
#	11410
#	24095
#	37962
#	50780
#	64435
#	74505
#	90445
#	103692
#	118205
#	130215
#	146882
#	162345
#	176085
#	189850
#	204225
#	219182
#	234517
#	249462
#	264087
#
# Disc length: 3752 seconds
#
# Revision: 1
# Processed by: cddbd v1.5.1PL0 Copyright (c) Steve Scherf et al.
# Submitted via: CDex 1.50Beta5
#
DISCID=160ea614
DTITLE=Various Artist - 名鑑復刻 仮面ライダー・ザ・ベスト
DYEAR=1900
DGENRE=(Doyo)
TTITLE0=レッツゴー!!ライダーキック
TTITLE1=仮面ライダーのうた
TTITLE2=戦え!仮面ライダーV3
TTITLE3=少年仮面ライダー隊の歌
TTITLE4=セタップ!仮面ライダーX
TTITLE5=白い弾丸 クルーザー
TTITLE6=アマゾンライダーここにあり
TTITLE7=アマゾンダダダ!!
TTITLE8=仮面ライダー ストロンガーのうた
TTITLE9=きょうもたたかう ストロンガー
TTITLE10=燃えろ!仮面ライダー
TTITLE11=はるかなる愛にかけて
TTITLE12=仮面ライダー スーパー1
TTITLE13=火を噴け ライダー拳
TTITLE14=ドラゴン・ロード
TTITLE15=FORGET MEMORIE'S
TTITLE16=仮面ライダーBLACK
TTITLE17=LONG LONG AGO, 20TH CENTURY
TTITLE18=仮面ライダーBLACK RX
TTITLE19=誰かが君を愛してる
EXTD=
EXTT0=
EXTT1=
EXTT2=
EXTT3=
EXTT4=
EXTT5=
EXTT6=
EXTT7=
EXTT8=
EXTT9=
EXTT10=
EXTT11=
EXTT12=
EXTT13=
EXTT14=
EXTT15=
EXTT16=
EXTT17=
EXTT18=
EXTT19=
PLAYORDER=
